<svg style="vertical-align: -2.27ex;" xmlns="http://www.w3.org/2000/svg" width="572.82" height="56.70" role="img" focusable="false" viewBox="0 -1503.1 25318.9 2506.3" xmlns:xlink="http://www.w3.org/1999/xlink"><title>Mathematical expression</title><metadata id="latex-source">P_t=\frac{\sum_i a_i v_i}{\sum_i |a_i|v_i},\qquad
C_t=\frac{\sum_i |a_i|v_i}{\sum_i v_i},\qquad a_i\in\{-1,0,+1\}.</metadata><style>svg{color:#202124}@media(prefers-color-scheme:dark){svg{color:#e8eaed}}</style><defs><path id="MJX-6-TEX-I-1D443" d="M287 628Q287 635 230 637Q206 637 199 638T192 648Q192 649 194 659Q200 679 203 681T397 683Q587 682 600 680Q664 669 707 631T751 530Q751 453 685 389Q616 321 507 303Q500 302 402 301H307L277 182Q247 66 247 59Q247 55 248 54T255 50T272 48T305 46H336Q342 37 342 35Q342 19 335 5Q330 0 319 0Q316 0 282 1T182 2Q120 2 87 2T51 1Q33 1 33 11Q33 13 36 25Q40 41 44 43T67 46Q94 46 127 49Q141 52 146 61Q149 65 218 339T287 628ZM645 554Q645 567 643 575T634 597T609 619T560 635Q553 636 480 637Q463 637 445 637T416 636T404 636Q391 635 386 627Q384 621 367 550T332 412T314 344Q314 342 395 342H407H430Q542 342 590 392Q617 419 631 471T645 554Z"></path><path id="MJX-6-TEX-I-1D461" d="M26 385Q19 392 19 395Q19 399 22 411T27 425Q29 430 36 430T87 431H140L159 511Q162 522 166 540T173 566T179 586T187 603T197 615T211 624T229 626Q247 625 254 615T261 596Q261 589 252 549T232 470L222 433Q222 431 272 431H323Q330 424 330 420Q330 398 317 385H210L174 240Q135 80 135 68Q135 26 162 26Q197 26 230 60T283 144Q285 150 288 151T303 153H307Q322 153 322 145Q322 142 319 133Q314 117 301 95T267 48T216 6T155 -11Q125 -11 98 4T59 56Q57 64 57 83V101L92 241Q127 382 128 383Q128 385 77 385H26Z"></path><path id="MJX-6-TEX-N-3D" d="M56 347Q56 360 70 367H707Q722 359 722 347Q722 336 708 328L390 327H72Q56 332 56 347ZM56 153Q56 168 72 173H708Q722 163 722 153Q722 140 707 133H70Q56 140 56 153Z"></path><path id="MJX-6-TEX-SO-2211" d="M61 748Q64 750 489 750H913L954 640Q965 609 976 579T993 533T999 516H979L959 517Q936 579 886 621T777 682Q724 700 655 705T436 710H319Q183 710 183 709Q186 706 348 484T511 259Q517 250 513 244L490 216Q466 188 420 134T330 27L149 -187Q149 -188 362 -188Q388 -188 436 -188T506 -189Q679 -189 778 -162T936 -43Q946 -27 959 6H999L913 -249L489 -250Q65 -250 62 -248Q56 -246 56 -239Q56 -234 118 -161Q186 -81 245 -11L428 206Q428 207 242 462L57 717L56 728Q56 744 61 748Z"></path><path id="MJX-6-TEX-I-1D456" d="M184 600Q184 624 203 642T247 661Q265 661 277 649T290 619Q290 596 270 577T226 557Q211 557 198 567T184 600ZM21 287Q21 295 30 318T54 369T98 420T158 442Q197 442 223 419T250 357Q250 340 236 301T196 196T154 83Q149 61 149 51Q149 26 166 26Q175 26 185 29T208 43T235 78T260 137Q263 149 265 151T282 153Q302 153 302 143Q302 135 293 112T268 61T223 11T161 -11Q129 -11 102 10T74 74Q74 91 79 106T122 220Q160 321 166 341T173 380Q173 404 156 404H154Q124 404 99 371T61 287Q60 286 59 284T58 281T56 279T53 278T49 278T41 278H27Q21 284 21 287Z"></path><path id="MJX-6-TEX-I-1D44E" d="M33 157Q33 258 109 349T280 441Q331 441 370 392Q386 422 416 422Q429 422 439 414T449 394Q449 381 412 234T374 68Q374 43 381 35T402 26Q411 27 422 35Q443 55 463 131Q469 151 473 152Q475 153 483 153H487Q506 153 506 144Q506 138 501 117T481 63T449 13Q436 0 417 -8Q409 -10 393 -10Q359 -10 336 5T306 36L300 51Q299 52 296 50Q294 48 292 46Q233 -10 172 -10Q117 -10 75 30T33 157ZM351 328Q351 334 346 350T323 385T277 405Q242 405 210 374T160 293Q131 214 119 129Q119 126 119 118T118 106Q118 61 136 44T179 26Q217 26 254 59T298 110Q300 114 325 217T351 328Z"></path><path id="MJX-6-TEX-I-1D463" d="M173 380Q173 405 154 405Q130 405 104 376T61 287Q60 286 59 284T58 281T56 279T53 278T49 278T41 278H27Q21 284 21 287Q21 294 29 316T53 368T97 419T160 441Q202 441 225 417T249 361Q249 344 246 335Q246 329 231 291T200 202T182 113Q182 86 187 69Q200 26 250 26Q287 26 319 60T369 139T398 222T409 277Q409 300 401 317T383 343T365 361T357 383Q357 405 376 424T417 443Q436 443 451 425T467 367Q467 340 455 284T418 159T347 40T241 -11Q177 -11 139 22Q102 54 102 117Q102 148 110 181T151 298Q173 362 173 380Z"></path><path id="MJX-6-TEX-N-7C" d="M139 -249H137Q125 -249 119 -235V251L120 737Q130 750 139 750Q152 750 159 735V-235Q151 -249 141 -249H139Z"></path><path id="MJX-6-TEX-N-2C" d="M78 35T78 60T94 103T137 121Q165 121 187 96T210 8Q210 -27 201 -60T180 -117T154 -158T130 -185T117 -194Q113 -194 104 -185T95 -172Q95 -168 106 -156T131 -126T157 -76T173 -3V9L172 8Q170 7 167 6T161 3T152 1T140 0Q113 0 96 17Z"></path><path id="MJX-6-TEX-I-1D436" d="M50 252Q50 367 117 473T286 641T490 704Q580 704 633 653Q642 643 648 636T656 626L657 623Q660 623 684 649Q691 655 699 663T715 679T725 690L740 705H746Q760 705 760 698Q760 694 728 561Q692 422 692 421Q690 416 687 415T669 413H653Q647 419 647 422Q647 423 648 429T650 449T651 481Q651 552 619 605T510 659Q484 659 454 652T382 628T299 572T226 479Q194 422 175 346T156 222Q156 108 232 58Q280 24 350 24Q441 24 512 92T606 240Q610 253 612 255T628 257Q648 257 648 248Q648 243 647 239Q618 132 523 55T319 -22Q206 -22 128 53T50 252Z"></path><path id="MJX-6-TEX-N-2208" d="M84 250Q84 372 166 450T360 539Q361 539 377 539T419 540T469 540H568Q583 532 583 520Q583 511 570 501L466 500Q355 499 329 494Q280 482 242 458T183 409T147 354T129 306T124 272V270H568Q583 262 583 250T568 230H124V228Q124 207 134 177T167 112T231 48T328 7Q355 1 466 0H570Q583 -10 583 -20Q583 -32 568 -40H471Q464 -40 446 -40T417 -41Q262 -41 172 45Q84 127 84 250Z"></path><path id="MJX-6-TEX-N-7B" d="M434 -231Q434 -244 428 -250H410Q281 -250 230 -184Q225 -177 222 -172T217 -161T213 -148T211 -133T210 -111T209 -84T209 -47T209 0Q209 21 209 53Q208 142 204 153Q203 154 203 155Q189 191 153 211T82 231Q71 231 68 234T65 250T68 266T82 269Q116 269 152 289T203 345Q208 356 208 377T209 529V579Q209 634 215 656T244 698Q270 724 324 740Q361 748 377 749Q379 749 390 749T408 750H428Q434 744 434 732Q434 719 431 716Q429 713 415 713Q362 710 332 689T296 647Q291 634 291 499V417Q291 370 288 353T271 314Q240 271 184 255L170 250L184 245Q202 239 220 230T262 196T290 137Q291 131 291 1Q291 -134 296 -147Q306 -174 339 -192T415 -213Q429 -213 431 -216Q434 -219 434 -231Z"></path><path id="MJX-6-TEX-N-2212" d="M84 237T84 250T98 270H679Q694 262 694 250T679 230H98Q84 237 84 250Z"></path><path id="MJX-6-TEX-N-31" d="M213 578L200 573Q186 568 160 563T102 556H83V602H102Q149 604 189 617T245 641T273 663Q275 666 285 666Q294 666 302 660V361L303 61Q310 54 315 52T339 48T401 46H427V0H416Q395 3 257 3Q121 3 100 0H88V46H114Q136 46 152 46T177 47T193 50T201 52T207 57T213 61V578Z"></path><path id="MJX-6-TEX-N-30" d="M96 585Q152 666 249 666Q297 666 345 640T423 548Q460 465 460 320Q460 165 417 83Q397 41 362 16T301 -15T250 -22Q224 -22 198 -16T137 16T82 83Q39 165 39 320Q39 494 96 585ZM321 597Q291 629 250 629Q208 629 178 597Q153 571 145 525T137 333Q137 175 145 125T181 46Q209 16 250 16Q290 16 318 46Q347 76 354 130T362 333Q362 478 354 524T321 597Z"></path><path id="MJX-6-TEX-N-2B" d="M56 237T56 250T70 270H369V420L370 570Q380 583 389 583Q402 583 409 568V270H707Q722 262 722 250T707 230H409V-68Q401 -82 391 -82H389H387Q375 -82 369 -68V230H70Q56 237 56 250Z"></path><path id="MJX-6-TEX-N-7D" d="M65 731Q65 745 68 747T88 750Q171 750 216 725T279 670Q288 649 289 635T291 501Q292 362 293 357Q306 312 345 291T417 269Q428 269 431 266T434 250T431 234T417 231Q380 231 345 210T298 157Q293 143 292 121T291 -28V-79Q291 -134 285 -156T256 -198Q202 -250 89 -250Q71 -250 68 -247T65 -230Q65 -224 65 -223T66 -218T69 -214T77 -213Q91 -213 108 -210T146 -200T183 -177T207 -139Q208 -134 209 3L210 139Q223 196 280 230Q315 247 330 250Q305 257 280 270Q225 304 212 352L210 362L209 498Q208 635 207 640Q195 680 154 696T77 713Q68 713 67 716T65 731Z"></path><path id="MJX-6-TEX-N-2E" d="M78 60Q78 84 95 102T138 120Q162 120 180 104T199 61Q199 36 182 18T139 0T96 17T78 60Z"></path></defs><g stroke="currentColor" fill="currentColor" stroke-width="0" transform="scale(1,-1)"><g data-mml-node="math"><g data-mml-node="msub"><g data-mml-node="mi"><use data-c="1D443" xlink:href="#MJX-6-TEX-I-1D443"></use></g><g data-mml-node="mi" transform="translate(675,-150) scale(0.707)"><use data-c="1D461" xlink:href="#MJX-6-TEX-I-1D461"></use></g></g><g data-mml-node="mo" transform="translate(1258,0)"><use data-c="3D" xlink:href="#MJX-6-TEX-N-3D"></use></g><g data-mml-node="mfrac" transform="translate(2313.8,0)"><g data-mml-node="mrow" transform="translate(498,753.1)"><g data-mml-node="munder"><g data-mml-node="mo"><use data-c="2211" xlink:href="#MJX-6-TEX-SO-2211"></use></g><g data-mml-node="mi" transform="translate(1089,-285.4) scale(0.707)"><use data-c="1D456" xlink:href="#MJX-6-TEX-I-1D456"></use></g></g><g data-mml-node="msub" transform="translate(1549.6,0)"><g data-mml-node="mi"><use data-c="1D44E" xlink:href="#MJX-6-TEX-I-1D44E"></use></g><g data-mml-node="mi" transform="translate(562,-150) scale(0.707)"><use data-c="1D456" xlink:href="#MJX-6-TEX-I-1D456"></use></g></g><g data-mml-node="msub" transform="translate(2405.6,0)"><g data-mml-node="mi"><use data-c="1D463" xlink:href="#MJX-6-TEX-I-1D463"></use></g><g data-mml-node="mi" transform="translate(518,-150) scale(0.707)"><use data-c="1D456" xlink:href="#MJX-6-TEX-I-1D456"></use></g></g></g><g data-mml-node="mrow" transform="translate(220,-710)"><g data-mml-node="munder"><g data-mml-node="mo"><use data-c="2211" xlink:href="#MJX-6-TEX-SO-2211"></use></g><g data-mml-node="mi" transform="translate(1089,-285.4) scale(0.707)"><use data-c="1D456" xlink:href="#MJX-6-TEX-I-1D456"></use></g></g><g data-mml-node="mo" transform="translate(1549.6,0) translate(0 -0.5)"><use data-c="7C" xlink:href="#MJX-6-TEX-N-7C"></use></g><g data-mml-node="msub" transform="translate(1827.6,0)"><g data-mml-node="mi"><use data-c="1D44E" xlink:href="#MJX-6-TEX-I-1D44E"></use></g><g data-mml-node="mi" transform="translate(562,-150) scale(0.707)"><use data-c="1D456" xlink:href="#MJX-6-TEX-I-1D456"></use></g></g><g data-mml-node="mo" transform="translate(2683.6,0) translate(0 -0.5)"><use data-c="7C" xlink:href="#MJX-6-TEX-N-7C"></use></g><g data-mml-node="msub" transform="translate(2961.6,0)"><g data-mml-node="mi"><use data-c="1D463" xlink:href="#MJX-6-TEX-I-1D463"></use></g><g data-mml-node="mi" transform="translate(518,-150) scale(0.707)"><use data-c="1D456" xlink:href="#MJX-6-TEX-I-1D456"></use></g></g></g><rect width="3973.5" height="60" x="120" y="220"></rect></g><g data-mml-node="mo" transform="translate(6527.3,0)"><use data-c="2C" xlink:href="#MJX-6-TEX-N-2C"></use></g><g data-mml-node="mstyle" transform="translate(6805.3,0)"><g data-mml-node="mspace"></g></g><g data-mml-node="msub" transform="translate(8972,0)"><g data-mml-node="mi"><use data-c="1D436" xlink:href="#MJX-6-TEX-I-1D436"></use></g><g data-mml-node="mi" transform="translate(748,-150) scale(0.707)"><use data-c="1D461" xlink:href="#MJX-6-TEX-I-1D461"></use></g></g><g data-mml-node="mo" transform="translate(10303.1,0)"><use data-c="3D" xlink:href="#MJX-6-TEX-N-3D"></use></g><g data-mml-node="mfrac" transform="translate(11358.8,0)"><g data-mml-node="mrow" transform="translate(220,753.1)"><g data-mml-node="munder"><g data-mml-node="mo"><use data-c="2211" xlink:href="#MJX-6-TEX-SO-2211"></use></g><g data-mml-node="mi" transform="translate(1089,-285.4) scale(0.707)"><use data-c="1D456" xlink:href="#MJX-6-TEX-I-1D456"></use></g></g><g data-mml-node="mo" transform="translate(1549.6,0) translate(0 -0.5)"><use data-c="7C" xlink:href="#MJX-6-TEX-N-7C"></use></g><g data-mml-node="msub" transform="translate(1827.6,0)"><g data-mml-node="mi"><use data-c="1D44E" xlink:href="#MJX-6-TEX-I-1D44E"></use></g><g data-mml-node="mi" transform="translate(562,-150) scale(0.707)"><use data-c="1D456" xlink:href="#MJX-6-TEX-I-1D456"></use></g></g><g data-mml-node="mo" transform="translate(2683.6,0) translate(0 -0.5)"><use data-c="7C" xlink:href="#MJX-6-TEX-N-7C"></use></g><g data-mml-node="msub" transform="translate(2961.6,0)"><g data-mml-node="mi"><use data-c="1D463" xlink:href="#MJX-6-TEX-I-1D463"></use></g><g data-mml-node="mi" transform="translate(518,-150) scale(0.707)"><use data-c="1D456" xlink:href="#MJX-6-TEX-I-1D456"></use></g></g></g><g data-mml-node="mrow" transform="translate(926,-710)"><g data-mml-node="munder"><g data-mml-node="mo"><use data-c="2211" xlink:href="#MJX-6-TEX-SO-2211"></use></g><g data-mml-node="mi" transform="translate(1089,-285.4) scale(0.707)"><use data-c="1D456" xlink:href="#MJX-6-TEX-I-1D456"></use></g></g><g data-mml-node="msub" transform="translate(1549.6,0)"><g data-mml-node="mi"><use data-c="1D463" xlink:href="#MJX-6-TEX-I-1D463"></use></g><g data-mml-node="mi" transform="translate(518,-150) scale(0.707)"><use data-c="1D456" xlink:href="#MJX-6-TEX-I-1D456"></use></g></g></g><rect width="3973.5" height="60" x="120" y="220"></rect></g><g data-mml-node="mo" transform="translate(15572.4,0)"><use data-c="2C" xlink:href="#MJX-6-TEX-N-2C"></use></g><g data-mml-node="mstyle" transform="translate(15850.4,0)"><g data-mml-node="mspace"></g></g><g data-mml-node="msub" transform="translate(18017,0)"><g data-mml-node="mi"><use data-c="1D44E" xlink:href="#MJX-6-TEX-I-1D44E"></use></g><g data-mml-node="mi" transform="translate(562,-150) scale(0.707)"><use data-c="1D456" xlink:href="#MJX-6-TEX-I-1D456"></use></g></g><g data-mml-node="mo" transform="translate(19150.7,0)"><use data-c="2208" xlink:href="#MJX-6-TEX-N-2208"></use></g><g data-mml-node="mo" transform="translate(20095.5,0)"><use data-c="7B" xlink:href="#MJX-6-TEX-N-7B"></use></g><g data-mml-node="mo" transform="translate(20595.5,0)"><use data-c="2212" xlink:href="#MJX-6-TEX-N-2212"></use></g><g data-mml-node="mn" transform="translate(21373.5,0)"><use data-c="31" xlink:href="#MJX-6-TEX-N-31"></use></g><g data-mml-node="mo" transform="translate(21873.5,0)"><use data-c="2C" xlink:href="#MJX-6-TEX-N-2C"></use></g><g data-mml-node="mn" transform="translate(22318.2,0)"><use data-c="30" xlink:href="#MJX-6-TEX-N-30"></use></g><g data-mml-node="mo" transform="translate(22818.2,0)"><use data-c="2C" xlink:href="#MJX-6-TEX-N-2C"></use></g><g data-mml-node="mo" transform="translate(23262.9,0)"><use data-c="2B" xlink:href="#MJX-6-TEX-N-2B"></use></g><g data-mml-node="mn" transform="translate(24040.9,0)"><use data-c="31" xlink:href="#MJX-6-TEX-N-31"></use></g><g data-mml-node="mo" transform="translate(24540.9,0)"><use data-c="7D" xlink:href="#MJX-6-TEX-N-7D"></use></g><g data-mml-node="mo" transform="translate(25040.9,0)"><use data-c="2E" xlink:href="#MJX-6-TEX-N-2E"></use></g></g></g></svg>
