<svg style="vertical-align: -0.489ex;" xmlns="http://www.w3.org/2000/svg" width="426.59" height="21.06" role="img" focusable="false" viewBox="0 -715 18855.1 931" xmlns:xlink="http://www.w3.org/1999/xlink"><title>Mathematical expression</title><metadata id="latex-source">J=-\rho\nabla_w\mathcal H-D_t\nabla_w\rho,
\qquad
\partial_t\rho=-\nabla_w\cdot J.</metadata><style>svg{color:#202124}@media(prefers-color-scheme:dark){svg{color:#e8eaed}}</style><defs><path id="MJX-24-TEX-I-1D43D" d="M447 625Q447 637 354 637H329Q323 642 323 645T325 664Q329 677 335 683H352Q393 681 498 681Q541 681 568 681T605 682T619 682Q633 682 633 672Q633 670 630 658Q626 642 623 640T604 637Q552 637 545 623Q541 610 483 376Q420 128 419 127Q397 64 333 21T195 -22Q137 -22 97 8T57 88Q57 130 80 152T132 174Q177 174 182 130Q182 98 164 80T123 56Q115 54 115 53T122 44Q148 15 197 15Q235 15 271 47T324 130Q328 142 387 380T447 625Z"></path><path id="MJX-24-TEX-N-3D" d="M56 347Q56 360 70 367H707Q722 359 722 347Q722 336 708 328L390 327H72Q56 332 56 347ZM56 153Q56 168 72 173H708Q722 163 722 153Q722 140 707 133H70Q56 140 56 153Z"></path><path id="MJX-24-TEX-N-2212" d="M84 237T84 250T98 270H679Q694 262 694 250T679 230H98Q84 237 84 250Z"></path><path id="MJX-24-TEX-I-1D70C" d="M58 -216Q25 -216 23 -186Q23 -176 73 26T127 234Q143 289 182 341Q252 427 341 441Q343 441 349 441T359 442Q432 442 471 394T510 276Q510 219 486 165T425 74T345 13T266 -10H255H248Q197 -10 165 35L160 41L133 -71Q108 -168 104 -181T92 -202Q76 -216 58 -216ZM424 322Q424 359 407 382T357 405Q322 405 287 376T231 300Q217 269 193 170L176 102Q193 26 260 26Q298 26 334 62Q367 92 389 158T418 266T424 322Z"></path><path id="MJX-24-TEX-N-2207" d="M46 676Q46 679 51 683H781Q786 679 786 676Q786 674 617 326T444 -26Q439 -33 416 -33T388 -26Q385 -22 216 326T46 676ZM697 596Q697 597 445 597T193 596Q195 591 319 336T445 80L697 596Z"></path><path id="MJX-24-TEX-I-1D464" d="M580 385Q580 406 599 424T641 443Q659 443 674 425T690 368Q690 339 671 253Q656 197 644 161T609 80T554 12T482 -11Q438 -11 404 5T355 48Q354 47 352 44Q311 -11 252 -11Q226 -11 202 -5T155 14T118 53T104 116Q104 170 138 262T173 379Q173 380 173 381Q173 390 173 393T169 400T158 404H154Q131 404 112 385T82 344T65 302T57 280Q55 278 41 278H27Q21 284 21 287Q21 293 29 315T52 366T96 418T161 441Q204 441 227 416T250 358Q250 340 217 250T184 111Q184 65 205 46T258 26Q301 26 334 87L339 96V119Q339 122 339 128T340 136T341 143T342 152T345 165T348 182T354 206T362 238T373 281Q402 395 406 404Q419 431 449 431Q468 431 475 421T483 402Q483 389 454 274T422 142Q420 131 420 107V100Q420 85 423 71T442 42T487 26Q558 26 600 148Q609 171 620 213T632 273Q632 306 619 325T593 357T580 385Z"></path><path id="MJX-24-TEX-C-48" d="M18 487Q18 496 29 517T67 566T127 621T216 665T330 683Q359 683 376 669T397 643T400 622Q400 584 382 488T348 343Q348 342 467 342H587L594 366Q615 440 648 534T690 641Q701 656 723 669T764 683Q783 683 783 672L750 578Q716 485 677 346T625 101Q624 92 623 82T622 65T621 56Q621 20 658 20Q666 20 701 25Q709 52 736 69T785 87Q803 87 803 75T791 44T754 3T685 -33T588 -48Q568 -48 562 -46Q522 -31 522 13V23Q531 129 562 250L569 281L565 280Q561 278 556 277T549 274L438 273H328L321 249Q307 202 275 107T232 0Q219 -16 196 -28T155 -41Q149 -41 145 -39T140 -34T139 -29Q139 -24 148 -3T181 86T233 247Q240 270 240 272Q240 273 194 273H169Q139 273 139 285Q139 295 153 308T187 332Q206 341 236 342L260 343L264 359Q278 414 289 482T300 578Q300 613 260 613H254Q198 613 169 592Q148 578 127 544T104 508Q72 478 37 475Q18 475 18 487Z"></path><path id="MJX-24-TEX-I-1D437" d="M287 628Q287 635 230 637Q207 637 200 638T193 647Q193 655 197 667T204 682Q206 683 403 683Q570 682 590 682T630 676Q702 659 752 597T803 431Q803 275 696 151T444 3L430 1L236 0H125H72Q48 0 41 2T33 11Q33 13 36 25Q40 41 44 43T67 46Q94 46 127 49Q141 52 146 61Q149 65 218 339T287 628ZM703 469Q703 507 692 537T666 584T629 613T590 629T555 636Q553 636 541 636T512 636T479 637H436Q392 637 386 627Q384 623 313 339T242 52Q242 48 253 48T330 47Q335 47 349 47T373 46Q499 46 581 128Q617 164 640 212T683 339T703 469Z"></path><path id="MJX-24-TEX-I-1D461" d="M26 385Q19 392 19 395Q19 399 22 411T27 425Q29 430 36 430T87 431H140L159 511Q162 522 166 540T173 566T179 586T187 603T197 615T211 624T229 626Q247 625 254 615T261 596Q261 589 252 549T232 470L222 433Q222 431 272 431H323Q330 424 330 420Q330 398 317 385H210L174 240Q135 80 135 68Q135 26 162 26Q197 26 230 60T283 144Q285 150 288 151T303 153H307Q322 153 322 145Q322 142 319 133Q314 117 301 95T267 48T216 6T155 -11Q125 -11 98 4T59 56Q57 64 57 83V101L92 241Q127 382 128 383Q128 385 77 385H26Z"></path><path id="MJX-24-TEX-N-2C" d="M78 35T78 60T94 103T137 121Q165 121 187 96T210 8Q210 -27 201 -60T180 -117T154 -158T130 -185T117 -194Q113 -194 104 -185T95 -172Q95 -168 106 -156T131 -126T157 -76T173 -3V9L172 8Q170 7 167 6T161 3T152 1T140 0Q113 0 96 17Z"></path><path id="MJX-24-TEX-I-1D715" d="M202 508Q179 508 169 520T158 547Q158 557 164 577T185 624T230 675T301 710L333 715H345Q378 715 384 714Q447 703 489 661T549 568T566 457Q566 362 519 240T402 53Q321 -22 223 -22Q123 -22 73 56Q42 102 42 148V159Q42 276 129 370T322 465Q383 465 414 434T455 367L458 378Q478 461 478 515Q478 603 437 639T344 676Q266 676 223 612Q264 606 264 572Q264 547 246 528T202 508ZM430 306Q430 372 401 400T333 428Q270 428 222 382Q197 354 183 323T150 221Q132 149 132 116Q132 21 232 21Q244 21 250 22Q327 35 374 112Q389 137 409 196T430 306Z"></path><path id="MJX-24-TEX-N-22C5" d="M78 250Q78 274 95 292T138 310Q162 310 180 294T199 251Q199 226 182 208T139 190T96 207T78 250Z"></path><path id="MJX-24-TEX-N-2E" d="M78 60Q78 84 95 102T138 120Q162 120 180 104T199 61Q199 36 182 18T139 0T96 17T78 60Z"></path></defs><g stroke="currentColor" fill="currentColor" stroke-width="0" transform="scale(1,-1)"><g data-mml-node="math"><g data-mml-node="mi"><use data-c="1D43D" xlink:href="#MJX-24-TEX-I-1D43D"></use></g><g data-mml-node="mo" transform="translate(910.8,0)"><use data-c="3D" xlink:href="#MJX-24-TEX-N-3D"></use></g><g data-mml-node="mo" transform="translate(1966.6,0)"><use data-c="2212" xlink:href="#MJX-24-TEX-N-2212"></use></g><g data-mml-node="mi" transform="translate(2744.6,0)"><use data-c="1D70C" xlink:href="#MJX-24-TEX-I-1D70C"></use></g><g data-mml-node="msub" transform="translate(3261.6,0)"><g data-mml-node="mi"><use data-c="2207" xlink:href="#MJX-24-TEX-N-2207"></use></g><g data-mml-node="mi" transform="translate(866,-150) scale(0.707)"><use data-c="1D464" xlink:href="#MJX-24-TEX-I-1D464"></use></g></g><g data-mml-node="TeXAtom" data-mjx-texclass="ORD" transform="translate(4683.8,0)"><g data-mml-node="mi"><use data-c="48" xlink:href="#MJX-24-TEX-C-48"></use></g></g><g data-mml-node="mo" transform="translate(5751.1,0)"><use data-c="2212" xlink:href="#MJX-24-TEX-N-2212"></use></g><g data-mml-node="msub" transform="translate(6751.3,0)"><g data-mml-node="mi"><use data-c="1D437" xlink:href="#MJX-24-TEX-I-1D437"></use></g><g data-mml-node="mi" transform="translate(861,-150) scale(0.707)"><use data-c="1D461" xlink:href="#MJX-24-TEX-I-1D461"></use></g></g><g data-mml-node="msub" transform="translate(7917.6,0)"><g data-mml-node="mi"><use data-c="2207" xlink:href="#MJX-24-TEX-N-2207"></use></g><g data-mml-node="mi" transform="translate(866,-150) scale(0.707)"><use data-c="1D464" xlink:href="#MJX-24-TEX-I-1D464"></use></g></g><g data-mml-node="mi" transform="translate(9339.8,0)"><use data-c="1D70C" xlink:href="#MJX-24-TEX-I-1D70C"></use></g><g data-mml-node="mo" transform="translate(9856.8,0)"><use data-c="2C" xlink:href="#MJX-24-TEX-N-2C"></use></g><g data-mml-node="mstyle" transform="translate(10134.8,0)"><g data-mml-node="mspace"></g></g><g data-mml-node="msub" transform="translate(12301.5,0)"><g data-mml-node="mi"><use data-c="1D715" xlink:href="#MJX-24-TEX-I-1D715"></use></g><g data-mml-node="mi" transform="translate(564,-150) scale(0.707)"><use data-c="1D461" xlink:href="#MJX-24-TEX-I-1D461"></use></g></g><g data-mml-node="mi" transform="translate(13170.8,0)"><use data-c="1D70C" xlink:href="#MJX-24-TEX-I-1D70C"></use></g><g data-mml-node="mo" transform="translate(13965.6,0)"><use data-c="3D" xlink:href="#MJX-24-TEX-N-3D"></use></g><g data-mml-node="mo" transform="translate(15021.3,0)"><use data-c="2212" xlink:href="#MJX-24-TEX-N-2212"></use></g><g data-mml-node="msub" transform="translate(15799.3,0)"><g data-mml-node="mi"><use data-c="2207" xlink:href="#MJX-24-TEX-N-2207"></use></g><g data-mml-node="mi" transform="translate(866,-150) scale(0.707)"><use data-c="1D464" xlink:href="#MJX-24-TEX-I-1D464"></use></g></g><g data-mml-node="mo" transform="translate(17443.8,0)"><use data-c="22C5" xlink:href="#MJX-24-TEX-N-22C5"></use></g><g data-mml-node="mi" transform="translate(17944.1,0)"><use data-c="1D43D" xlink:href="#MJX-24-TEX-I-1D43D"></use></g><g data-mml-node="mo" transform="translate(18577.1,0)"><use data-c="2E" xlink:href="#MJX-24-TEX-N-2E"></use></g></g></g></svg>
