<svg style="vertical-align: -2.723ex;" xmlns="http://www.w3.org/2000/svg" width="358.86" height="60.26" role="img" focusable="false" viewBox="0 -1460 15861.8 2663.4" xmlns:xlink="http://www.w3.org/1999/xlink"><title>Mathematical expression</title><metadata id="latex-source">w_i^{S}(t)=p_t^{S,h}(S_{i+h})\frac{k_i(t)}{\sum_{j:S_{j+h}=S_{i+h}}k_j(t)}.</metadata><style>svg{color:#202124}@media(prefers-color-scheme:dark){svg{color:#e8eaed}}</style><defs><path id="MJX-13-TEX-I-1D464" d="M580 385Q580 406 599 424T641 443Q659 443 674 425T690 368Q690 339 671 253Q656 197 644 161T609 80T554 12T482 -11Q438 -11 404 5T355 48Q354 47 352 44Q311 -11 252 -11Q226 -11 202 -5T155 14T118 53T104 116Q104 170 138 262T173 379Q173 380 173 381Q173 390 173 393T169 400T158 404H154Q131 404 112 385T82 344T65 302T57 280Q55 278 41 278H27Q21 284 21 287Q21 293 29 315T52 366T96 418T161 441Q204 441 227 416T250 358Q250 340 217 250T184 111Q184 65 205 46T258 26Q301 26 334 87L339 96V119Q339 122 339 128T340 136T341 143T342 152T345 165T348 182T354 206T362 238T373 281Q402 395 406 404Q419 431 449 431Q468 431 475 421T483 402Q483 389 454 274T422 142Q420 131 420 107V100Q420 85 423 71T442 42T487 26Q558 26 600 148Q609 171 620 213T632 273Q632 306 619 325T593 357T580 385Z"></path><path id="MJX-13-TEX-I-1D446" d="M308 24Q367 24 416 76T466 197Q466 260 414 284Q308 311 278 321T236 341Q176 383 176 462Q176 523 208 573T273 648Q302 673 343 688T407 704H418H425Q521 704 564 640Q565 640 577 653T603 682T623 704Q624 704 627 704T632 705Q645 705 645 698T617 577T585 459T569 456Q549 456 549 465Q549 471 550 475Q550 478 551 494T553 520Q553 554 544 579T526 616T501 641Q465 662 419 662Q362 662 313 616T263 510Q263 480 278 458T319 427Q323 425 389 408T456 390Q490 379 522 342T554 242Q554 216 546 186Q541 164 528 137T492 78T426 18T332 -20Q320 -22 298 -22Q199 -22 144 33L134 44L106 13Q83 -14 78 -18T65 -22Q52 -22 52 -14Q52 -11 110 221Q112 227 130 227H143Q149 221 149 216Q149 214 148 207T144 186T142 153Q144 114 160 87T203 47T255 29T308 24Z"></path><path id="MJX-13-TEX-I-1D456" d="M184 600Q184 624 203 642T247 661Q265 661 277 649T290 619Q290 596 270 577T226 557Q211 557 198 567T184 600ZM21 287Q21 295 30 318T54 369T98 420T158 442Q197 442 223 419T250 357Q250 340 236 301T196 196T154 83Q149 61 149 51Q149 26 166 26Q175 26 185 29T208 43T235 78T260 137Q263 149 265 151T282 153Q302 153 302 143Q302 135 293 112T268 61T223 11T161 -11Q129 -11 102 10T74 74Q74 91 79 106T122 220Q160 321 166 341T173 380Q173 404 156 404H154Q124 404 99 371T61 287Q60 286 59 284T58 281T56 279T53 278T49 278T41 278H27Q21 284 21 287Z"></path><path id="MJX-13-TEX-N-28" d="M94 250Q94 319 104 381T127 488T164 576T202 643T244 695T277 729T302 750H315H319Q333 750 333 741Q333 738 316 720T275 667T226 581T184 443T167 250T184 58T225 -81T274 -167T316 -220T333 -241Q333 -250 318 -250H315H302L274 -226Q180 -141 137 -14T94 250Z"></path><path id="MJX-13-TEX-I-1D461" d="M26 385Q19 392 19 395Q19 399 22 411T27 425Q29 430 36 430T87 431H140L159 511Q162 522 166 540T173 566T179 586T187 603T197 615T211 624T229 626Q247 625 254 615T261 596Q261 589 252 549T232 470L222 433Q222 431 272 431H323Q330 424 330 420Q330 398 317 385H210L174 240Q135 80 135 68Q135 26 162 26Q197 26 230 60T283 144Q285 150 288 151T303 153H307Q322 153 322 145Q322 142 319 133Q314 117 301 95T267 48T216 6T155 -11Q125 -11 98 4T59 56Q57 64 57 83V101L92 241Q127 382 128 383Q128 385 77 385H26Z"></path><path id="MJX-13-TEX-N-29" d="M60 749L64 750Q69 750 74 750H86L114 726Q208 641 251 514T294 250Q294 182 284 119T261 12T224 -76T186 -143T145 -194T113 -227T90 -246Q87 -249 86 -250H74Q66 -250 63 -250T58 -247T55 -238Q56 -237 66 -225Q221 -64 221 250T66 725Q56 737 55 738Q55 746 60 749Z"></path><path id="MJX-13-TEX-N-3D" d="M56 347Q56 360 70 367H707Q722 359 722 347Q722 336 708 328L390 327H72Q56 332 56 347ZM56 153Q56 168 72 173H708Q722 163 722 153Q722 140 707 133H70Q56 140 56 153Z"></path><path id="MJX-13-TEX-I-1D45D" d="M23 287Q24 290 25 295T30 317T40 348T55 381T75 411T101 433T134 442Q209 442 230 378L240 387Q302 442 358 442Q423 442 460 395T497 281Q497 173 421 82T249 -10Q227 -10 210 -4Q199 1 187 11T168 28L161 36Q160 35 139 -51T118 -138Q118 -144 126 -145T163 -148H188Q194 -155 194 -157T191 -175Q188 -187 185 -190T172 -194Q170 -194 161 -194T127 -193T65 -192Q-5 -192 -24 -194H-32Q-39 -187 -39 -183Q-37 -156 -26 -148H-6Q28 -147 33 -136Q36 -130 94 103T155 350Q156 355 156 364Q156 405 131 405Q109 405 94 377T71 316T59 280Q57 278 43 278H29Q23 284 23 287ZM178 102Q200 26 252 26Q282 26 310 49T356 107Q374 141 392 215T411 325V331Q411 405 350 405Q339 405 328 402T306 393T286 380T269 365T254 350T243 336T235 326L232 322Q232 321 229 308T218 264T204 212Q178 106 178 102Z"></path><path id="MJX-13-TEX-N-2C" d="M78 35T78 60T94 103T137 121Q165 121 187 96T210 8Q210 -27 201 -60T180 -117T154 -158T130 -185T117 -194Q113 -194 104 -185T95 -172Q95 -168 106 -156T131 -126T157 -76T173 -3V9L172 8Q170 7 167 6T161 3T152 1T140 0Q113 0 96 17Z"></path><path id="MJX-13-TEX-I-210E" d="M137 683Q138 683 209 688T282 694Q294 694 294 685Q294 674 258 534Q220 386 220 383Q220 381 227 388Q288 442 357 442Q411 442 444 415T478 336Q478 285 440 178T402 50Q403 36 407 31T422 26Q450 26 474 56T513 138Q516 149 519 151T535 153Q555 153 555 145Q555 144 551 130Q535 71 500 33Q466 -10 419 -10H414Q367 -10 346 17T325 74Q325 90 361 192T398 345Q398 404 354 404H349Q266 404 205 306L198 293L164 158Q132 28 127 16Q114 -11 83 -11Q69 -11 59 -2T48 16Q48 30 121 320L195 616Q195 629 188 632T149 637H128Q122 643 122 645T124 664Q129 683 137 683Z"></path><path id="MJX-13-TEX-N-2B" d="M56 237T56 250T70 270H369V420L370 570Q380 583 389 583Q402 583 409 568V270H707Q722 262 722 250T707 230H409V-68Q401 -82 391 -82H389H387Q375 -82 369 -68V230H70Q56 237 56 250Z"></path><path id="MJX-13-TEX-I-1D458" d="M121 647Q121 657 125 670T137 683Q138 683 209 688T282 694Q294 694 294 686Q294 679 244 477Q194 279 194 272Q213 282 223 291Q247 309 292 354T362 415Q402 442 438 442Q468 442 485 423T503 369Q503 344 496 327T477 302T456 291T438 288Q418 288 406 299T394 328Q394 353 410 369T442 390L458 393Q446 405 434 405H430Q398 402 367 380T294 316T228 255Q230 254 243 252T267 246T293 238T320 224T342 206T359 180T365 147Q365 130 360 106T354 66Q354 26 381 26Q429 26 459 145Q461 153 479 153H483Q499 153 499 144Q499 139 496 130Q455 -11 378 -11Q333 -11 305 15T277 90Q277 108 280 121T283 145Q283 167 269 183T234 206T200 217T182 220H180Q168 178 159 139T145 81T136 44T129 20T122 7T111 -2Q98 -11 83 -11Q66 -11 57 -1T48 16Q48 26 85 176T158 471L195 616Q196 629 188 632T149 637H144Q134 637 131 637T124 640T121 647Z"></path><path id="MJX-13-TEX-SO-2211" d="M61 748Q64 750 489 750H913L954 640Q965 609 976 579T993 533T999 516H979L959 517Q936 579 886 621T777 682Q724 700 655 705T436 710H319Q183 710 183 709Q186 706 348 484T511 259Q517 250 513 244L490 216Q466 188 420 134T330 27L149 -187Q149 -188 362 -188Q388 -188 436 -188T506 -189Q679 -189 778 -162T936 -43Q946 -27 959 6H999L913 -249L489 -250Q65 -250 62 -248Q56 -246 56 -239Q56 -234 118 -161Q186 -81 245 -11L428 206Q428 207 242 462L57 717L56 728Q56 744 61 748Z"></path><path id="MJX-13-TEX-I-1D457" d="M297 596Q297 627 318 644T361 661Q378 661 389 651T403 623Q403 595 384 576T340 557Q322 557 310 567T297 596ZM288 376Q288 405 262 405Q240 405 220 393T185 362T161 325T144 293L137 279Q135 278 121 278H107Q101 284 101 286T105 299Q126 348 164 391T252 441Q253 441 260 441T272 442Q296 441 316 432Q341 418 354 401T367 348V332L318 133Q267 -67 264 -75Q246 -125 194 -164T75 -204Q25 -204 7 -183T-12 -137Q-12 -110 7 -91T53 -71Q70 -71 82 -81T95 -112Q95 -148 63 -167Q69 -168 77 -168Q111 -168 139 -140T182 -74L193 -32Q204 11 219 72T251 197T278 308T289 365Q289 372 288 376Z"></path><path id="MJX-13-TEX-N-3A" d="M78 370Q78 394 95 412T138 430Q162 430 180 414T199 371Q199 346 182 328T139 310T96 327T78 370ZM78 60Q78 84 95 102T138 120Q162 120 180 104T199 61Q199 36 182 18T139 0T96 17T78 60Z"></path><path id="MJX-13-TEX-N-2E" d="M78 60Q78 84 95 102T138 120Q162 120 180 104T199 61Q199 36 182 18T139 0T96 17T78 60Z"></path></defs><g stroke="currentColor" fill="currentColor" stroke-width="0" transform="scale(1,-1)"><g data-mml-node="math"><g data-mml-node="msubsup"><g data-mml-node="mi"><use data-c="1D464" xlink:href="#MJX-13-TEX-I-1D464"></use></g><g data-mml-node="TeXAtom" transform="translate(749,413) scale(0.707)" data-mjx-texclass="ORD"><g data-mml-node="mi"><use data-c="1D446" xlink:href="#MJX-13-TEX-I-1D446"></use></g></g><g data-mml-node="mi" transform="translate(749,-250) scale(0.707)"><use data-c="1D456" xlink:href="#MJX-13-TEX-I-1D456"></use></g></g><g data-mml-node="mo" transform="translate(1255.1,0)"><use data-c="28" xlink:href="#MJX-13-TEX-N-28"></use></g><g data-mml-node="mi" transform="translate(1644.1,0)"><use data-c="1D461" xlink:href="#MJX-13-TEX-I-1D461"></use></g><g data-mml-node="mo" transform="translate(2005.1,0)"><use data-c="29" xlink:href="#MJX-13-TEX-N-29"></use></g><g data-mml-node="mo" transform="translate(2671.9,0)"><use data-c="3D" xlink:href="#MJX-13-TEX-N-3D"></use></g><g data-mml-node="msubsup" transform="translate(3727.6,0)"><g data-mml-node="mi"><use data-c="1D45D" xlink:href="#MJX-13-TEX-I-1D45D"></use></g><g data-mml-node="TeXAtom" transform="translate(536,490.8) scale(0.707)" data-mjx-texclass="ORD"><g data-mml-node="mi"><use data-c="1D446" xlink:href="#MJX-13-TEX-I-1D446"></use></g><g data-mml-node="mo" transform="translate(645,0)"><use data-c="2C" xlink:href="#MJX-13-TEX-N-2C"></use></g><g data-mml-node="mi" transform="translate(923,0)"><use data-c="210E" xlink:href="#MJX-13-TEX-I-210E"></use></g></g><g data-mml-node="mi" transform="translate(536,-269) scale(0.707)"><use data-c="1D461" xlink:href="#MJX-13-TEX-I-1D461"></use></g></g><g data-mml-node="mo" transform="translate(5373.6,0)"><use data-c="28" xlink:href="#MJX-13-TEX-N-28"></use></g><g data-mml-node="msub" transform="translate(5762.6,0)"><g data-mml-node="mi"><use data-c="1D446" xlink:href="#MJX-13-TEX-I-1D446"></use></g><g data-mml-node="TeXAtom" transform="translate(646,-150) scale(0.707)" data-mjx-texclass="ORD"><g data-mml-node="mi"><use data-c="1D456" xlink:href="#MJX-13-TEX-I-1D456"></use></g><g data-mml-node="mo" transform="translate(345,0)"><use data-c="2B" xlink:href="#MJX-13-TEX-N-2B"></use></g><g data-mml-node="mi" transform="translate(1123,0)"><use data-c="210E" xlink:href="#MJX-13-TEX-I-210E"></use></g></g></g><g data-mml-node="mo" transform="translate(7660,0)"><use data-c="29" xlink:href="#MJX-13-TEX-N-29"></use></g><g data-mml-node="mfrac" transform="translate(8049,0)"><g data-mml-node="mrow" transform="translate(2773.9,710)"><g data-mml-node="msub"><g data-mml-node="mi"><use data-c="1D458" xlink:href="#MJX-13-TEX-I-1D458"></use></g><g data-mml-node="mi" transform="translate(554,-150) scale(0.707)"><use data-c="1D456" xlink:href="#MJX-13-TEX-I-1D456"></use></g></g><g data-mml-node="mo" transform="translate(848,0)"><use data-c="28" xlink:href="#MJX-13-TEX-N-28"></use></g><g data-mml-node="mi" transform="translate(1237,0)"><use data-c="1D461" xlink:href="#MJX-13-TEX-I-1D461"></use></g><g data-mml-node="mo" transform="translate(1598,0)"><use data-c="29" xlink:href="#MJX-13-TEX-N-29"></use></g></g><g data-mml-node="mrow" transform="translate(220,-710)"><g data-mml-node="munder"><g data-mml-node="mo"><use data-c="2211" xlink:href="#MJX-13-TEX-SO-2211"></use></g><g data-mml-node="TeXAtom" transform="translate(1089,-285.4) scale(0.707)" data-mjx-texclass="ORD"><g data-mml-node="mi"><use data-c="1D457" xlink:href="#MJX-13-TEX-I-1D457"></use></g><g data-mml-node="mo" transform="translate(412,0)"><use data-c="3A" xlink:href="#MJX-13-TEX-N-3A"></use></g><g data-mml-node="msub" transform="translate(690,0)"><g data-mml-node="mi"><use data-c="1D446" xlink:href="#MJX-13-TEX-I-1D446"></use></g><g data-mml-node="TeXAtom" transform="translate(646,-150) scale(0.707)" data-mjx-texclass="ORD"><g data-mml-node="mi"><use data-c="1D457" xlink:href="#MJX-13-TEX-I-1D457"></use></g><g data-mml-node="mo" transform="translate(412,0)"><use data-c="2B" xlink:href="#MJX-13-TEX-N-2B"></use></g><g data-mml-node="mi" transform="translate(1190,0)"><use data-c="210E" xlink:href="#MJX-13-TEX-I-210E"></use></g></g></g><g data-mml-node="mo" transform="translate(2634.8,0)"><use data-c="3D" xlink:href="#MJX-13-TEX-N-3D"></use></g><g data-mml-node="msub" transform="translate(3412.8,0)"><g data-mml-node="mi"><use data-c="1D446" xlink:href="#MJX-13-TEX-I-1D446"></use></g><g data-mml-node="TeXAtom" transform="translate(646,-150) scale(0.707)" data-mjx-texclass="ORD"><g data-mml-node="mi"><use data-c="1D456" xlink:href="#MJX-13-TEX-I-1D456"></use></g><g data-mml-node="mo" transform="translate(345,0)"><use data-c="2B" xlink:href="#MJX-13-TEX-N-2B"></use></g><g data-mml-node="mi" transform="translate(1123,0)"><use data-c="210E" xlink:href="#MJX-13-TEX-I-210E"></use></g></g></g></g></g><g data-mml-node="msub" transform="translate(5060.5,0)"><g data-mml-node="mi"><use data-c="1D458" xlink:href="#MJX-13-TEX-I-1D458"></use></g><g data-mml-node="mi" transform="translate(554,-150) scale(0.707)"><use data-c="1D457" xlink:href="#MJX-13-TEX-I-1D457"></use></g></g><g data-mml-node="mo" transform="translate(5955.8,0)"><use data-c="28" xlink:href="#MJX-13-TEX-N-28"></use></g><g data-mml-node="mi" transform="translate(6344.8,0)"><use data-c="1D461" xlink:href="#MJX-13-TEX-I-1D461"></use></g><g data-mml-node="mo" transform="translate(6705.8,0)"><use data-c="29" xlink:href="#MJX-13-TEX-N-29"></use></g></g><rect width="7294.8" height="60" x="120" y="220"></rect></g><g data-mml-node="mo" transform="translate(15583.8,0)"><use data-c="2E" xlink:href="#MJX-13-TEX-N-2E"></use></g></g></g></svg>
