<svg style="vertical-align: -1.577ex;" xmlns="http://www.w3.org/2000/svg" width="433.10" height="46.76" role="img" focusable="false" viewBox="0 -1370 19143.2 2067" xmlns:xlink="http://www.w3.org/1999/xlink"><title>Mathematical expression</title><metadata id="latex-source">\mathcal H(w)=-Fw+\frac{\gamma}{2}w^2,
\qquad -\frac{d\mathcal H}{dw}=F-\gamma w.</metadata><style>svg{color:#202124}@media(prefers-color-scheme:dark){svg{color:#e8eaed}}</style><defs><path id="MJX-12-TEX-C-48" d="M18 487Q18 496 29 517T67 566T127 621T216 665T330 683Q359 683 376 669T397 643T400 622Q400 584 382 488T348 343Q348 342 467 342H587L594 366Q615 440 648 534T690 641Q701 656 723 669T764 683Q783 683 783 672L750 578Q716 485 677 346T625 101Q624 92 623 82T622 65T621 56Q621 20 658 20Q666 20 701 25Q709 52 736 69T785 87Q803 87 803 75T791 44T754 3T685 -33T588 -48Q568 -48 562 -46Q522 -31 522 13V23Q531 129 562 250L569 281L565 280Q561 278 556 277T549 274L438 273H328L321 249Q307 202 275 107T232 0Q219 -16 196 -28T155 -41Q149 -41 145 -39T140 -34T139 -29Q139 -24 148 -3T181 86T233 247Q240 270 240 272Q240 273 194 273H169Q139 273 139 285Q139 295 153 308T187 332Q206 341 236 342L260 343L264 359Q278 414 289 482T300 578Q300 613 260 613H254Q198 613 169 592Q148 578 127 544T104 508Q72 478 37 475Q18 475 18 487Z"></path><path id="MJX-12-TEX-N-28" d="M94 250Q94 319 104 381T127 488T164 576T202 643T244 695T277 729T302 750H315H319Q333 750 333 741Q333 738 316 720T275 667T226 581T184 443T167 250T184 58T225 -81T274 -167T316 -220T333 -241Q333 -250 318 -250H315H302L274 -226Q180 -141 137 -14T94 250Z"></path><path id="MJX-12-TEX-I-1D464" d="M580 385Q580 406 599 424T641 443Q659 443 674 425T690 368Q690 339 671 253Q656 197 644 161T609 80T554 12T482 -11Q438 -11 404 5T355 48Q354 47 352 44Q311 -11 252 -11Q226 -11 202 -5T155 14T118 53T104 116Q104 170 138 262T173 379Q173 380 173 381Q173 390 173 393T169 400T158 404H154Q131 404 112 385T82 344T65 302T57 280Q55 278 41 278H27Q21 284 21 287Q21 293 29 315T52 366T96 418T161 441Q204 441 227 416T250 358Q250 340 217 250T184 111Q184 65 205 46T258 26Q301 26 334 87L339 96V119Q339 122 339 128T340 136T341 143T342 152T345 165T348 182T354 206T362 238T373 281Q402 395 406 404Q419 431 449 431Q468 431 475 421T483 402Q483 389 454 274T422 142Q420 131 420 107V100Q420 85 423 71T442 42T487 26Q558 26 600 148Q609 171 620 213T632 273Q632 306 619 325T593 357T580 385Z"></path><path id="MJX-12-TEX-N-29" d="M60 749L64 750Q69 750 74 750H86L114 726Q208 641 251 514T294 250Q294 182 284 119T261 12T224 -76T186 -143T145 -194T113 -227T90 -246Q87 -249 86 -250H74Q66 -250 63 -250T58 -247T55 -238Q56 -237 66 -225Q221 -64 221 250T66 725Q56 737 55 738Q55 746 60 749Z"></path><path id="MJX-12-TEX-N-3D" d="M56 347Q56 360 70 367H707Q722 359 722 347Q722 336 708 328L390 327H72Q56 332 56 347ZM56 153Q56 168 72 173H708Q722 163 722 153Q722 140 707 133H70Q56 140 56 153Z"></path><path id="MJX-12-TEX-N-2212" d="M84 237T84 250T98 270H679Q694 262 694 250T679 230H98Q84 237 84 250Z"></path><path id="MJX-12-TEX-I-1D439" d="M48 1Q31 1 31 11Q31 13 34 25Q38 41 42 43T65 46Q92 46 125 49Q139 52 144 61Q146 66 215 342T285 622Q285 629 281 629Q273 632 228 634H197Q191 640 191 642T193 659Q197 676 203 680H742Q749 676 749 669Q749 664 736 557T722 447Q720 440 702 440H690Q683 445 683 453Q683 454 686 477T689 530Q689 560 682 579T663 610T626 626T575 633T503 634H480Q398 633 393 631Q388 629 386 623Q385 622 352 492L320 363H375Q378 363 398 363T426 364T448 367T472 374T489 386Q502 398 511 419T524 457T529 475Q532 480 548 480H560Q567 475 567 470Q567 467 536 339T502 207Q500 200 482 200H470Q463 206 463 212Q463 215 468 234T473 274Q473 303 453 310T364 317H309L277 190Q245 66 245 60Q245 46 334 46H359Q365 40 365 39T363 19Q359 6 353 0H336Q295 2 185 2Q120 2 86 2T48 1Z"></path><path id="MJX-12-TEX-N-2B" d="M56 237T56 250T70 270H369V420L370 570Q380 583 389 583Q402 583 409 568V270H707Q722 262 722 250T707 230H409V-68Q401 -82 391 -82H389H387Q375 -82 369 -68V230H70Q56 237 56 250Z"></path><path id="MJX-12-TEX-I-1D6FE" d="M31 249Q11 249 11 258Q11 275 26 304T66 365T129 418T206 441Q233 441 239 440Q287 429 318 386T371 255Q385 195 385 170Q385 166 386 166L398 193Q418 244 443 300T486 391T508 430Q510 431 524 431H537Q543 425 543 422Q543 418 522 378T463 251T391 71Q385 55 378 6T357 -100Q341 -165 330 -190T303 -216Q286 -216 286 -188Q286 -138 340 32L346 51L347 69Q348 79 348 100Q348 257 291 317Q251 355 196 355Q148 355 108 329T51 260Q49 251 47 251Q45 249 31 249Z"></path><path id="MJX-12-TEX-N-32" d="M109 429Q82 429 66 447T50 491Q50 562 103 614T235 666Q326 666 387 610T449 465Q449 422 429 383T381 315T301 241Q265 210 201 149L142 93L218 92Q375 92 385 97Q392 99 409 186V189H449V186Q448 183 436 95T421 3V0H50V19V31Q50 38 56 46T86 81Q115 113 136 137Q145 147 170 174T204 211T233 244T261 278T284 308T305 340T320 369T333 401T340 431T343 464Q343 527 309 573T212 619Q179 619 154 602T119 569T109 550Q109 549 114 549Q132 549 151 535T170 489Q170 464 154 447T109 429Z"></path><path id="MJX-12-TEX-N-2C" d="M78 35T78 60T94 103T137 121Q165 121 187 96T210 8Q210 -27 201 -60T180 -117T154 -158T130 -185T117 -194Q113 -194 104 -185T95 -172Q95 -168 106 -156T131 -126T157 -76T173 -3V9L172 8Q170 7 167 6T161 3T152 1T140 0Q113 0 96 17Z"></path><path id="MJX-12-TEX-I-1D451" d="M366 683Q367 683 438 688T511 694Q523 694 523 686Q523 679 450 384T375 83T374 68Q374 26 402 26Q411 27 422 35Q443 55 463 131Q469 151 473 152Q475 153 483 153H487H491Q506 153 506 145Q506 140 503 129Q490 79 473 48T445 8T417 -8Q409 -10 393 -10Q359 -10 336 5T306 36L300 51Q299 52 296 50Q294 48 292 46Q233 -10 172 -10Q117 -10 75 30T33 157Q33 205 53 255T101 341Q148 398 195 420T280 442Q336 442 364 400Q369 394 369 396Q370 400 396 505T424 616Q424 629 417 632T378 637H357Q351 643 351 645T353 664Q358 683 366 683ZM352 326Q329 405 277 405Q242 405 210 374T160 293Q131 214 119 129Q119 126 119 118T118 106Q118 61 136 44T179 26Q233 26 290 98L298 109L352 326Z"></path><path id="MJX-12-TEX-N-2E" d="M78 60Q78 84 95 102T138 120Q162 120 180 104T199 61Q199 36 182 18T139 0T96 17T78 60Z"></path></defs><g stroke="currentColor" fill="currentColor" stroke-width="0" transform="scale(1,-1)"><g data-mml-node="math"><g data-mml-node="TeXAtom" data-mjx-texclass="ORD"><g data-mml-node="mi"><use data-c="48" xlink:href="#MJX-12-TEX-C-48"></use></g></g><g data-mml-node="mo" transform="translate(845,0)"><use data-c="28" xlink:href="#MJX-12-TEX-N-28"></use></g><g data-mml-node="mi" transform="translate(1234,0)"><use data-c="1D464" xlink:href="#MJX-12-TEX-I-1D464"></use></g><g data-mml-node="mo" transform="translate(1950,0)"><use data-c="29" xlink:href="#MJX-12-TEX-N-29"></use></g><g data-mml-node="mo" transform="translate(2616.8,0)"><use data-c="3D" xlink:href="#MJX-12-TEX-N-3D"></use></g><g data-mml-node="mo" transform="translate(3672.6,0)"><use data-c="2212" xlink:href="#MJX-12-TEX-N-2212"></use></g><g data-mml-node="mi" transform="translate(4450.6,0)"><use data-c="1D439" xlink:href="#MJX-12-TEX-I-1D439"></use></g><g data-mml-node="mi" transform="translate(5199.6,0)"><use data-c="1D464" xlink:href="#MJX-12-TEX-I-1D464"></use></g><g data-mml-node="mo" transform="translate(6137.8,0)"><use data-c="2B" xlink:href="#MJX-12-TEX-N-2B"></use></g><g data-mml-node="mfrac" transform="translate(7138,0)"><g data-mml-node="mi" transform="translate(220,676)"><use data-c="1D6FE" xlink:href="#MJX-12-TEX-I-1D6FE"></use></g><g data-mml-node="mn" transform="translate(241.5,-686)"><use data-c="32" xlink:href="#MJX-12-TEX-N-32"></use></g><rect width="743" height="60" x="120" y="220"></rect></g><g data-mml-node="msup" transform="translate(8121,0)"><g data-mml-node="mi"><use data-c="1D464" xlink:href="#MJX-12-TEX-I-1D464"></use></g><g data-mml-node="mn" transform="translate(749,413) scale(0.707)"><use data-c="32" xlink:href="#MJX-12-TEX-N-32"></use></g></g><g data-mml-node="mo" transform="translate(9273.6,0)"><use data-c="2C" xlink:href="#MJX-12-TEX-N-2C"></use></g><g data-mml-node="mstyle" transform="translate(9551.6,0)"><g data-mml-node="mspace"></g></g><g data-mml-node="mo" transform="translate(11718.2,0)"><use data-c="2212" xlink:href="#MJX-12-TEX-N-2212"></use></g><g data-mml-node="mfrac" transform="translate(12496.2,0)"><g data-mml-node="mrow" transform="translate(220,676)"><g data-mml-node="mi"><use data-c="1D451" xlink:href="#MJX-12-TEX-I-1D451"></use></g><g data-mml-node="TeXAtom" data-mjx-texclass="ORD" transform="translate(520,0)"><g data-mml-node="mi"><use data-c="48" xlink:href="#MJX-12-TEX-C-48"></use></g></g></g><g data-mml-node="mrow" transform="translate(284.5,-686)"><g data-mml-node="mi"><use data-c="1D451" xlink:href="#MJX-12-TEX-I-1D451"></use></g><g data-mml-node="mi" transform="translate(520,0)"><use data-c="1D464" xlink:href="#MJX-12-TEX-I-1D464"></use></g></g><rect width="1565" height="60" x="120" y="220"></rect></g><g data-mml-node="mo" transform="translate(14579,0)"><use data-c="3D" xlink:href="#MJX-12-TEX-N-3D"></use></g><g data-mml-node="mi" transform="translate(15634.8,0)"><use data-c="1D439" xlink:href="#MJX-12-TEX-I-1D439"></use></g><g data-mml-node="mo" transform="translate(16606,0)"><use data-c="2212" xlink:href="#MJX-12-TEX-N-2212"></use></g><g data-mml-node="mi" transform="translate(17606.2,0)"><use data-c="1D6FE" xlink:href="#MJX-12-TEX-I-1D6FE"></use></g><g data-mml-node="mi" transform="translate(18149.2,0)"><use data-c="1D464" xlink:href="#MJX-12-TEX-I-1D464"></use></g><g data-mml-node="mo" transform="translate(18865.2,0)"><use data-c="2E" xlink:href="#MJX-12-TEX-N-2E"></use></g></g></g></svg>
