<svg style="vertical-align: -0.566ex;" xmlns="http://www.w3.org/2000/svg" width="518.50" height="22.62" role="img" focusable="false" viewBox="0 -750 22917.6 1000" xmlns:xlink="http://www.w3.org/1999/xlink"><title>Research equation</title><metadata id="latex-source">h_1\sim h_2\quad\Longleftrightarrow\quad
\mathcal L(Y_{t+1:t+H}\mid h_1)=\mathcal L(Y_{t+1:t+H}\mid h_2).</metadata><style>svg{color:#202124}@media(prefers-color-scheme:dark){svg{color:#e8eaed}}</style><defs><path id="MJX-13-TEX-I-210E" d="M137 683Q138 683 209 688T282 694Q294 694 294 685Q294 674 258 534Q220 386 220 383Q220 381 227 388Q288 442 357 442Q411 442 444 415T478 336Q478 285 440 178T402 50Q403 36 407 31T422 26Q450 26 474 56T513 138Q516 149 519 151T535 153Q555 153 555 145Q555 144 551 130Q535 71 500 33Q466 -10 419 -10H414Q367 -10 346 17T325 74Q325 90 361 192T398 345Q398 404 354 404H349Q266 404 205 306L198 293L164 158Q132 28 127 16Q114 -11 83 -11Q69 -11 59 -2T48 16Q48 30 121 320L195 616Q195 629 188 632T149 637H128Q122 643 122 645T124 664Q129 683 137 683Z"></path><path id="MJX-13-TEX-N-31" d="M213 578L200 573Q186 568 160 563T102 556H83V602H102Q149 604 189 617T245 641T273 663Q275 666 285 666Q294 666 302 660V361L303 61Q310 54 315 52T339 48T401 46H427V0H416Q395 3 257 3Q121 3 100 0H88V46H114Q136 46 152 46T177 47T193 50T201 52T207 57T213 61V578Z"></path><path id="MJX-13-TEX-N-223C" d="M55 166Q55 241 101 304T222 367Q260 367 296 349T362 304T421 252T484 208T554 189Q616 189 655 236T694 338Q694 350 698 358T708 367Q722 367 722 334Q722 260 677 197T562 134H554Q517 134 481 152T414 196T355 248T292 293T223 311Q179 311 145 286Q109 257 96 218T80 156T69 133Q55 133 55 166Z"></path><path id="MJX-13-TEX-N-32" d="M109 429Q82 429 66 447T50 491Q50 562 103 614T235 666Q326 666 387 610T449 465Q449 422 429 383T381 315T301 241Q265 210 201 149L142 93L218 92Q375 92 385 97Q392 99 409 186V189H449V186Q448 183 436 95T421 3V0H50V19V31Q50 38 56 46T86 81Q115 113 136 137Q145 147 170 174T204 211T233 244T261 278T284 308T305 340T320 369T333 401T340 431T343 464Q343 527 309 573T212 619Q179 619 154 602T119 569T109 550Q109 549 114 549Q132 549 151 535T170 489Q170 464 154 447T109 429Z"></path><path id="MJX-13-TEX-N-27FA" d="M1438 514Q1438 525 1454 525Q1459 525 1462 525T1467 525T1471 524T1473 523T1475 520T1477 517T1480 512Q1517 438 1578 381T1689 300T1785 263Q1802 258 1802 250T1793 239T1756 228T1698 204Q1554 134 1480 -12Q1476 -21 1473 -22T1458 -24Q1438 -24 1438 -17Q1438 -13 1443 0Q1478 69 1529 123L1539 133H318L328 123Q379 69 414 0Q419 -13 419 -17Q419 -24 399 -24Q388 -24 385 -23T377 -12Q332 77 253 144T72 237Q62 240 59 242T56 250T59 257T70 262T89 268T119 278T160 296Q303 366 377 512Q382 522 385 523T401 525Q419 524 419 515Q419 510 414 500Q379 431 328 377L318 367H1539L1529 377Q1496 412 1467 458T1438 514ZM274 173H1583L1593 181Q1632 211 1710 250Q1709 251 1692 259T1647 283T1593 319L1583 327H930L927 328L602 327H274L264 319Q225 289 147 250Q148 249 165 241T210 217T264 181L274 173Z"></path><path id="MJX-13-TEX-C-4C" d="M62 -22T47 -22T32 -11Q32 -1 56 24T83 55Q113 96 138 172T180 320T234 473T323 609Q364 649 419 677T531 705Q559 705 578 696T604 671T615 645T618 623V611Q618 582 615 571T598 548Q581 531 558 520T518 509Q503 509 503 520Q503 523 505 536T507 560Q507 590 494 610T452 630Q423 630 410 617Q367 578 333 492T271 301T233 170Q211 123 204 112L198 103L224 102Q281 102 369 79T509 52H523Q535 64 544 87T579 128Q616 152 641 152Q656 152 656 142Q656 101 588 40T433 -22Q381 -22 289 1T156 28L141 29L131 20Q111 0 87 -11Z"></path><path id="MJX-13-TEX-N-28" d="M94 250Q94 319 104 381T127 488T164 576T202 643T244 695T277 729T302 750H315H319Q333 750 333 741Q333 738 316 720T275 667T226 581T184 443T167 250T184 58T225 -81T274 -167T316 -220T333 -241Q333 -250 318 -250H315H302L274 -226Q180 -141 137 -14T94 250Z"></path><path id="MJX-13-TEX-I-1D44C" d="M66 637Q54 637 49 637T39 638T32 641T30 647T33 664T42 682Q44 683 56 683Q104 680 165 680Q288 680 306 683H316Q322 677 322 674T320 656Q316 643 310 637H298Q242 637 242 624Q242 619 292 477T343 333L346 336Q350 340 358 349T379 373T411 410T454 461Q546 568 561 587T577 618Q577 634 545 637Q528 637 528 647Q528 649 530 661Q533 676 535 679T549 683Q551 683 578 682T657 680Q684 680 713 681T746 682Q763 682 763 673Q763 669 760 657T755 643Q753 637 734 637Q662 632 617 587Q608 578 477 424L348 273L322 169Q295 62 295 57Q295 46 363 46Q379 46 384 45T390 35Q390 33 388 23Q384 6 382 4T366 1Q361 1 324 1T232 2Q170 2 138 2T102 1Q84 1 84 9Q84 14 87 24Q88 27 89 30T90 35T91 39T93 42T96 44T101 45T107 45T116 46T129 46Q168 47 180 50T198 63Q201 68 227 171L252 274L129 623Q128 624 127 625T125 627T122 629T118 631T113 633T105 634T96 635T83 636T66 637Z"></path><path id="MJX-13-TEX-I-1D461" d="M26 385Q19 392 19 395Q19 399 22 411T27 425Q29 430 36 430T87 431H140L159 511Q162 522 166 540T173 566T179 586T187 603T197 615T211 624T229 626Q247 625 254 615T261 596Q261 589 252 549T232 470L222 433Q222 431 272 431H323Q330 424 330 420Q330 398 317 385H210L174 240Q135 80 135 68Q135 26 162 26Q197 26 230 60T283 144Q285 150 288 151T303 153H307Q322 153 322 145Q322 142 319 133Q314 117 301 95T267 48T216 6T155 -11Q125 -11 98 4T59 56Q57 64 57 83V101L92 241Q127 382 128 383Q128 385 77 385H26Z"></path><path id="MJX-13-TEX-N-2B" d="M56 237T56 250T70 270H369V420L370 570Q380 583 389 583Q402 583 409 568V270H707Q722 262 722 250T707 230H409V-68Q401 -82 391 -82H389H387Q375 -82 369 -68V230H70Q56 237 56 250Z"></path><path id="MJX-13-TEX-N-3A" d="M78 370Q78 394 95 412T138 430Q162 430 180 414T199 371Q199 346 182 328T139 310T96 327T78 370ZM78 60Q78 84 95 102T138 120Q162 120 180 104T199 61Q199 36 182 18T139 0T96 17T78 60Z"></path><path id="MJX-13-TEX-I-1D43B" d="M228 637Q194 637 192 641Q191 643 191 649Q191 673 202 682Q204 683 219 683Q260 681 355 681Q389 681 418 681T463 682T483 682Q499 682 499 672Q499 670 497 658Q492 641 487 638H485Q483 638 480 638T473 638T464 637T455 637Q416 636 405 634T387 623Q384 619 355 500Q348 474 340 442T328 395L324 380Q324 378 469 378H614L615 381Q615 384 646 504Q674 619 674 627T617 637Q594 637 587 639T580 648Q580 650 582 660Q586 677 588 679T604 682Q609 682 646 681T740 680Q802 680 835 681T871 682Q888 682 888 672Q888 645 876 638H874Q872 638 869 638T862 638T853 637T844 637Q805 636 794 634T776 623Q773 618 704 340T634 58Q634 51 638 51Q646 48 692 46H723Q729 38 729 37T726 19Q722 6 716 0H701Q664 2 567 2Q533 2 504 2T458 2T437 1Q420 1 420 10Q420 15 423 24Q428 43 433 45Q437 46 448 46H454Q481 46 514 49Q520 50 522 50T528 55T534 64T540 82T547 110T558 153Q565 181 569 198Q602 330 602 331T457 332H312L279 197Q245 63 245 58Q245 51 253 49T303 46H334Q340 38 340 37T337 19Q333 6 327 0H312Q275 2 178 2Q144 2 115 2T69 2T48 1Q31 1 31 10Q31 12 34 24Q39 43 44 45Q48 46 59 46H65Q92 46 125 49Q139 52 144 61Q147 65 216 339T285 628Q285 635 228 637Z"></path><path id="MJX-13-TEX-N-2223" d="M139 -249H137Q125 -249 119 -235V251L120 737Q130 750 139 750Q152 750 159 735V-235Q151 -249 141 -249H139Z"></path><path id="MJX-13-TEX-N-29" d="M60 749L64 750Q69 750 74 750H86L114 726Q208 641 251 514T294 250Q294 182 284 119T261 12T224 -76T186 -143T145 -194T113 -227T90 -246Q87 -249 86 -250H74Q66 -250 63 -250T58 -247T55 -238Q56 -237 66 -225Q221 -64 221 250T66 725Q56 737 55 738Q55 746 60 749Z"></path><path id="MJX-13-TEX-N-3D" d="M56 347Q56 360 70 367H707Q722 359 722 347Q722 336 708 328L390 327H72Q56 332 56 347ZM56 153Q56 168 72 173H708Q722 163 722 153Q722 140 707 133H70Q56 140 56 153Z"></path><path id="MJX-13-TEX-N-2E" d="M78 60Q78 84 95 102T138 120Q162 120 180 104T199 61Q199 36 182 18T139 0T96 17T78 60Z"></path></defs><g stroke="currentColor" fill="currentColor" stroke-width="0" transform="scale(1,-1)"><g data-mml-node="math"><g data-mml-node="msub"><g data-mml-node="mi"><use data-c="210E" xlink:href="#MJX-13-TEX-I-210E"></use></g><g data-mml-node="mn" transform="translate(609,-150) scale(0.707)"><use data-c="31" xlink:href="#MJX-13-TEX-N-31"></use></g></g><g data-mml-node="mo" transform="translate(1290.3,0)"><use data-c="223C" xlink:href="#MJX-13-TEX-N-223C"></use></g><g data-mml-node="msub" transform="translate(2346.1,0)"><g data-mml-node="mi"><use data-c="210E" xlink:href="#MJX-13-TEX-I-210E"></use></g><g data-mml-node="mn" transform="translate(609,-150) scale(0.707)"><use data-c="32" xlink:href="#MJX-13-TEX-N-32"></use></g></g><g data-mml-node="mstyle" transform="translate(3358.7,0)"><g data-mml-node="mspace"></g></g><g data-mml-node="mo" transform="translate(4636.4,0)"><use data-c="27FA" xlink:href="#MJX-13-TEX-N-27FA"></use></g><g data-mml-node="mstyle" transform="translate(6494.4,0)"><g data-mml-node="mspace"></g></g><g data-mml-node="TeXAtom" data-mjx-texclass="ORD" transform="translate(7772.2,0)"><g data-mml-node="mi"><use data-c="4C" xlink:href="#MJX-13-TEX-C-4C"></use></g></g><g data-mml-node="mo" transform="translate(8462.2,0)"><use data-c="28" xlink:href="#MJX-13-TEX-N-28"></use></g><g data-mml-node="msub" transform="translate(8851.2,0)"><g data-mml-node="mi"><use data-c="1D44C" xlink:href="#MJX-13-TEX-I-1D44C"></use></g><g data-mml-node="TeXAtom" transform="translate(614,-150) scale(0.707)" data-mjx-texclass="ORD"><g data-mml-node="mi"><use data-c="1D461" xlink:href="#MJX-13-TEX-I-1D461"></use></g><g data-mml-node="mo" transform="translate(361,0)"><use data-c="2B" xlink:href="#MJX-13-TEX-N-2B"></use></g><g data-mml-node="mn" transform="translate(1139,0)"><use data-c="31" xlink:href="#MJX-13-TEX-N-31"></use></g><g data-mml-node="mo" transform="translate(1639,0)"><use data-c="3A" xlink:href="#MJX-13-TEX-N-3A"></use></g><g data-mml-node="mi" transform="translate(1917,0)"><use data-c="1D461" xlink:href="#MJX-13-TEX-I-1D461"></use></g><g data-mml-node="mo" transform="translate(2278,0)"><use data-c="2B" xlink:href="#MJX-13-TEX-N-2B"></use></g><g data-mml-node="mi" transform="translate(3056,0)"><use data-c="1D43B" xlink:href="#MJX-13-TEX-I-1D43B"></use></g></g></g><g data-mml-node="mo" transform="translate(12581.8,0)"><use data-c="2223" xlink:href="#MJX-13-TEX-N-2223"></use></g><g data-mml-node="msub" transform="translate(13137.6,0)"><g data-mml-node="mi"><use data-c="210E" xlink:href="#MJX-13-TEX-I-210E"></use></g><g data-mml-node="mn" transform="translate(609,-150) scale(0.707)"><use data-c="31" xlink:href="#MJX-13-TEX-N-31"></use></g></g><g data-mml-node="mo" transform="translate(14150.2,0)"><use data-c="29" xlink:href="#MJX-13-TEX-N-29"></use></g><g data-mml-node="mo" transform="translate(14816.9,0)"><use data-c="3D" xlink:href="#MJX-13-TEX-N-3D"></use></g><g data-mml-node="TeXAtom" data-mjx-texclass="ORD" transform="translate(15872.7,0)"><g data-mml-node="mi"><use data-c="4C" xlink:href="#MJX-13-TEX-C-4C"></use></g></g><g data-mml-node="mo" transform="translate(16562.7,0)"><use data-c="28" xlink:href="#MJX-13-TEX-N-28"></use></g><g data-mml-node="msub" transform="translate(16951.7,0)"><g data-mml-node="mi"><use data-c="1D44C" xlink:href="#MJX-13-TEX-I-1D44C"></use></g><g data-mml-node="TeXAtom" transform="translate(614,-150) scale(0.707)" data-mjx-texclass="ORD"><g data-mml-node="mi"><use data-c="1D461" xlink:href="#MJX-13-TEX-I-1D461"></use></g><g data-mml-node="mo" transform="translate(361,0)"><use data-c="2B" xlink:href="#MJX-13-TEX-N-2B"></use></g><g data-mml-node="mn" transform="translate(1139,0)"><use data-c="31" xlink:href="#MJX-13-TEX-N-31"></use></g><g data-mml-node="mo" transform="translate(1639,0)"><use data-c="3A" xlink:href="#MJX-13-TEX-N-3A"></use></g><g data-mml-node="mi" transform="translate(1917,0)"><use data-c="1D461" xlink:href="#MJX-13-TEX-I-1D461"></use></g><g data-mml-node="mo" transform="translate(2278,0)"><use data-c="2B" xlink:href="#MJX-13-TEX-N-2B"></use></g><g data-mml-node="mi" transform="translate(3056,0)"><use data-c="1D43B" xlink:href="#MJX-13-TEX-I-1D43B"></use></g></g></g><g data-mml-node="mo" transform="translate(20682.3,0)"><use data-c="2223" xlink:href="#MJX-13-TEX-N-2223"></use></g><g data-mml-node="msub" transform="translate(21238.1,0)"><g data-mml-node="mi"><use data-c="210E" xlink:href="#MJX-13-TEX-I-210E"></use></g><g data-mml-node="mn" transform="translate(609,-150) scale(0.707)"><use data-c="32" xlink:href="#MJX-13-TEX-N-32"></use></g></g><g data-mml-node="mo" transform="translate(22250.6,0)"><use data-c="29" xlink:href="#MJX-13-TEX-N-29"></use></g><g data-mml-node="mo" transform="translate(22639.6,0)"><use data-c="2E" xlink:href="#MJX-13-TEX-N-2E"></use></g></g></g></svg>